<svg width="18" height="19" viewBox="0 0 18 19" fill="none" xmlns="http://www.w3.org/2000/svg">
<path d="M14.25 8C12.7462 7.52611 10.9412 7.25 9 7.25C7.05884 7.25 5.25374 7.52611 3.75 8V10.625C5.25374 10.1512 7.05884 9.875 9 9.875C10.9412 9.875 12.7462 10.1512 14.25 10.625V8Z" stroke="#192125" stroke-width="1.5" stroke-linejoin="round"/>
<path d="M14.25 10.25V11.7674C14.25 13.3657 13.4759 14.8468 12.2109 15.6691L11.1609 16.3516C9.83085 17.2162 8.16915 17.2162 6.83912 16.3516L5.78912 15.6691C4.52406 14.8468 3.75 13.3657 3.75 11.7674V10.25" stroke="#192125" stroke-width="1.5" stroke-linecap="round"/>
<path d="M14.25 8L15.0943 7.55532C16.0416 6.93406 16.5152 6.62343 16.4996 6.17961C16.484 5.73579 15.99 5.46578 15.0019 4.92576L11.4565 2.98817C10.2511 2.32939 9.64837 2 9 2C8.35162 2 7.74892 2.32939 6.54351 2.98817L2.99815 4.92576C2.01003 5.46578 1.51597 5.73579 1.50037 6.17961C1.48477 6.62343 1.95844 6.93406 2.90575 7.55532L3.75 8" stroke="#192125" stroke-width="1.5" stroke-linecap="round"/>
</svg>
