<svg width="25" height="24" viewBox="0 0 25 24" fill="none" xmlns="http://www.w3.org/2000/svg">
<path d="M12.25 2C6.74 2 2.25 6.49 2.25 12C2.25 17.51 6.74 22 12.25 22C17.76 22 22.25 17.51 22.25 12C22.25 6.49 17.76 2 12.25 2ZM11.5 8C11.5 7.59 11.84 7.25 12.25 7.25C12.66 7.25 13 7.59 13 8V13C13 13.41 12.66 13.75 12.25 13.75C11.84 13.75 11.5 13.41 11.5 13V8ZM13.17 16.38C13.12 16.51 13.05 16.61 12.96 16.71C12.86 16.8 12.75 16.87 12.63 16.92C12.51 16.97 12.38 17 12.25 17C12.12 17 11.99 16.97 11.87 16.92C11.75 16.87 11.64 16.8 11.54 16.71C11.45 16.61 11.38 16.51 11.33 16.38C11.28 16.26 11.25 16.13 11.25 16C11.25 15.87 11.28 15.74 11.33 15.62C11.38 15.5 11.45 15.39 11.54 15.29C11.64 15.2 11.75 15.13 11.87 15.08C12.11 14.98 12.39 14.98 12.63 15.08C12.75 15.13 12.86 15.2 12.96 15.29C13.05 15.39 13.12 15.5 13.17 15.62C13.22 15.74 13.25 15.87 13.25 16C13.25 16.13 13.22 16.26 13.17 16.38Z" fill="#D70F0F"/>
</svg>
