<svg width="281" height="184" viewBox="0 0 281 184" fill="none" xmlns="http://www.w3.org/2000/svg">
<path fill-rule="evenodd" clip-rule="evenodd" d="M135.127 16.7854C122.731 17.0678 115.491 18.2478 110.544 23.1776C106.215 27.4922 104.767 33.5574 104.283 43.2854V70.6688C104.767 80.3969 106.215 86.4619 110.544 90.7765C115.491 95.7064 122.731 96.8865 135.127 97.1688H153.823C166.219 96.8865 173.459 95.7064 178.406 90.7765C182.736 86.4619 184.183 80.3969 184.667 70.6688V43.2854C184.183 33.5574 182.736 27.4922 178.406 23.1776C173.459 18.2478 166.219 17.0678 153.823 16.7854H135.127ZM143.15 32.4625C154.127 32.4625 158.167 39.8171 158.167 50.7938C158.167 61.7705 148.164 69.5625 137.188 69.5625C126.211 69.5625 118.638 61.7705 118.638 50.7938C118.638 39.8171 129.9 29.8125 143.15 32.4625Z" fill="#E7E6E7"/>
<path fill-rule="evenodd" clip-rule="evenodd" d="M147.861 97.6085H154.486C166.881 97.3262 174.122 96.1461 179.069 91.2162C183.398 86.9016 184.846 80.8366 185.329 71.1085V43.7251C184.846 33.9971 183.398 27.9319 179.069 23.6173C174.122 18.6875 166.881 17.5075 154.486 17.2251H147.861C160.256 17.5075 167.497 18.6875 172.444 23.6173C176.773 27.9319 178.221 33.9971 178.704 43.7251V71.1085C178.221 80.8366 176.773 86.9016 172.444 91.2162C167.497 96.1461 160.256 97.3262 147.861 97.6085ZM136.219 32.7303C126.53 34.2683 119.3 42.4389 119.3 51.2335C119.3 61.0804 125.395 68.3645 134.574 69.7596C133.474 69.9197 132.355 70.0022 131.225 70.0022C120.248 70.0022 112.675 62.2102 112.675 51.2335C112.675 40.5252 123.393 30.7422 136.219 32.7303Z" fill="#CDCBCD"/>
<path d="M127.177 8.83325C114.781 9.1157 107.541 10.2957 102.594 15.2255C98.2644 19.54 96.8171 25.6053 96.3333 35.3333M153.823 8.83325C166.219 9.1157 173.459 10.2957 178.406 15.2255C182.736 19.54 184.183 25.6053 184.667 35.3333M153.823 97.1666C166.219 96.8844 173.459 95.7042 178.406 90.7744C182.736 86.4597 184.183 80.3947 184.667 70.6666M127.177 97.1666C114.781 96.8844 107.541 95.7042 102.594 90.7744C98.2644 86.4597 96.8171 80.3947 96.3333 70.6666" stroke="#044666" stroke-width="4" stroke-linecap="round" stroke-linejoin="round"/>
<path d="M153.75 66.2501L162.583 75.0834M158.167 50.7918C158.167 39.815 149.268 30.9167 138.292 30.9167C127.315 30.9167 118.417 39.815 118.417 50.7918C118.417 61.7685 127.315 70.6668 138.292 70.6668C149.268 70.6668 158.167 61.7685 158.167 50.7918Z" stroke="#044666" stroke-width="4" stroke-linecap="round" stroke-linejoin="round"/>
<path d="M15.8214 149V134.455H21.2759C22.3933 134.455 23.3308 134.663 24.0884 135.08C24.8507 135.496 25.426 136.069 25.8143 136.798C26.2073 137.523 26.4038 138.347 26.4038 139.27C26.4038 140.203 26.2073 141.031 25.8143 141.756C25.4213 142.48 24.8413 143.051 24.0742 143.467C23.3072 143.879 22.3626 144.085 21.2404 144.085H17.6254V141.919H20.8853C21.5387 141.919 22.0737 141.805 22.4904 141.578C22.9071 141.351 23.2148 141.038 23.4137 140.641C23.6173 140.243 23.7191 139.786 23.7191 139.27C23.7191 138.754 23.6173 138.299 23.4137 137.906C23.2148 137.513 22.9047 137.208 22.4833 136.99C22.0666 136.768 21.5292 136.656 20.8711 136.656H18.4563V149H15.8214ZM31.1499 134.455V149H28.5788V134.455H31.1499ZM36.9329 149.22C36.2416 149.22 35.619 149.097 35.065 148.851C34.5157 148.6 34.0801 148.231 33.7582 147.743C33.4409 147.255 33.2823 146.654 33.2823 145.939C33.2823 145.323 33.396 144.814 33.6232 144.412C33.8505 144.009 34.1606 143.688 34.5536 143.446C34.9466 143.205 35.3893 143.022 35.8817 142.899C36.3789 142.771 36.8926 142.679 37.4229 142.622C38.0621 142.556 38.5806 142.497 38.9783 142.445C39.3761 142.388 39.6649 142.303 39.8448 142.189C40.0295 142.071 40.1218 141.888 40.1218 141.642V141.599C40.1218 141.064 39.9632 140.65 39.646 140.357C39.3287 140.063 38.8718 139.916 38.2752 139.916C37.6455 139.916 37.146 140.054 36.7766 140.328C36.4121 140.603 36.1658 140.927 36.038 141.301L33.6374 140.96C33.8268 140.297 34.1393 139.743 34.5749 139.298C35.0105 138.848 35.5432 138.512 36.1729 138.29C36.8027 138.062 37.4987 137.949 38.261 137.949C38.7866 137.949 39.3098 138.01 39.8306 138.134C40.3514 138.257 40.8273 138.46 41.2582 138.744C41.689 139.024 42.0347 139.405 42.2951 139.888C42.5603 140.371 42.6928 140.974 42.6928 141.699V149H40.2212V147.501H40.136C39.9798 147.804 39.7596 148.089 39.4755 148.354C39.1961 148.614 38.8434 148.825 38.4173 148.986C37.9959 149.142 37.5011 149.22 36.9329 149.22ZM37.6005 147.331C38.1166 147.331 38.564 147.229 38.9428 147.026C39.3216 146.817 39.6128 146.543 39.8164 146.202C40.0247 145.861 40.1289 145.489 40.1289 145.087V143.801C40.0484 143.867 39.9111 143.929 39.717 143.986C39.5276 144.043 39.3145 144.092 39.0778 144.135C38.841 144.178 38.6067 144.215 38.3746 144.249C38.1426 144.282 37.9414 144.31 37.771 144.334C37.3874 144.386 37.0442 144.471 36.7411 144.589C36.4381 144.708 36.199 144.874 36.0238 145.087C35.8486 145.295 35.761 145.565 35.761 145.896C35.761 146.37 35.9338 146.727 36.2795 146.969C36.6251 147.21 37.0655 147.331 37.6005 147.331ZM50.0366 149.213C48.9476 149.213 48.0124 148.974 47.2312 148.496C46.4547 148.018 45.8557 147.357 45.4343 146.514C45.0176 145.667 44.8093 144.691 44.8093 143.588C44.8093 142.48 45.0224 141.502 45.4485 140.655C45.8746 139.803 46.476 139.14 47.2525 138.666C48.0337 138.188 48.957 137.949 50.0224 137.949C50.9078 137.949 51.6914 138.112 52.3732 138.439C53.0598 138.761 53.6067 139.218 54.0138 139.81C54.421 140.397 54.6531 141.083 54.7099 141.869H52.2525C52.1531 141.344 51.9163 140.906 51.5423 140.555C51.1729 140.2 50.6781 140.023 50.0579 140.023C49.5323 140.023 49.0707 140.165 48.6729 140.449C48.2752 140.728 47.9651 141.131 47.7425 141.656C47.5247 142.182 47.4158 142.812 47.4158 143.545C47.4158 144.289 47.5247 144.928 47.7425 145.463C47.9603 145.993 48.2657 146.403 48.6587 146.692C49.0565 146.976 49.5228 147.118 50.0579 147.118C50.4367 147.118 50.7752 147.047 51.0735 146.905C51.3765 146.758 51.6299 146.547 51.8335 146.273C52.0371 145.998 52.1767 145.664 52.2525 145.271H54.7099C54.6483 146.043 54.421 146.727 54.0281 147.324C53.6351 147.916 53.1 148.38 52.4229 148.716C51.7459 149.047 50.9504 149.213 50.0366 149.213ZM61.6506 149.213C60.5568 149.213 59.6122 148.986 58.8168 148.531C58.026 148.072 57.4176 147.423 56.9915 146.585C56.5653 145.742 56.3523 144.75 56.3523 143.609C56.3523 142.487 56.5653 141.502 56.9915 140.655C57.4223 139.803 58.0237 139.14 58.7955 138.666C59.5672 138.188 60.474 137.949 61.5156 137.949C62.188 137.949 62.8224 138.058 63.419 138.276C64.0204 138.489 64.5507 138.82 65.0099 139.27C65.474 139.72 65.8385 140.293 66.1037 140.989C66.3688 141.68 66.5014 142.504 66.5014 143.46V144.249H57.5597V142.516H64.0369C64.0322 142.023 63.9257 141.585 63.7173 141.202C63.509 140.813 63.2178 140.508 62.8438 140.286C62.4744 140.063 62.0436 139.952 61.5511 139.952C61.0256 139.952 60.5639 140.08 60.1662 140.335C59.7685 140.586 59.4583 140.918 59.2358 141.33C59.018 141.737 58.9067 142.184 58.902 142.672V144.185C58.902 144.819 59.018 145.364 59.25 145.818C59.482 146.268 59.8063 146.614 60.223 146.855C60.6397 147.092 61.1274 147.21 61.6861 147.21C62.0601 147.21 62.3987 147.158 62.7017 147.054C63.0047 146.945 63.2675 146.786 63.4901 146.578C63.7126 146.37 63.8807 146.112 63.9943 145.804L66.3949 146.074C66.2434 146.708 65.9545 147.262 65.5284 147.736C65.107 148.205 64.5672 148.569 63.9091 148.83C63.2509 149.085 62.4981 149.213 61.6506 149.213ZM75.2354 153.091C74.8851 153.091 74.5607 153.063 74.2624 153.006C73.9689 152.954 73.7345 152.892 73.5593 152.821L74.1559 150.818C74.5299 150.927 74.8638 150.979 75.1573 150.974C75.4509 150.97 75.7089 150.877 75.9315 150.697C76.1587 150.522 76.3505 150.229 76.5067 149.817L76.7269 149.227L72.771 138.091H75.4982L78.0124 146.33H78.1261L80.6474 138.091H83.3817L79.0138 150.321C78.8103 150.899 78.5404 151.393 78.2042 151.805C77.868 152.222 77.4561 152.539 76.9684 152.757C76.4854 152.98 75.9078 153.091 75.2354 153.091ZM89.5483 149.213C88.483 149.213 87.5597 148.979 86.7784 148.51C85.9972 148.041 85.3911 147.385 84.9602 146.543C84.5341 145.7 84.321 144.715 84.321 143.588C84.321 142.461 84.5341 141.474 84.9602 140.626C85.3911 139.779 85.9972 139.121 86.7784 138.652C87.5597 138.183 88.483 137.949 89.5483 137.949C90.6136 137.949 91.5369 138.183 92.3182 138.652C93.0994 139.121 93.7031 139.779 94.1293 140.626C94.5601 141.474 94.7756 142.461 94.7756 143.588C94.7756 144.715 94.5601 145.7 94.1293 146.543C93.7031 147.385 93.0994 148.041 92.3182 148.51C91.5369 148.979 90.6136 149.213 89.5483 149.213ZM89.5625 147.153C90.1402 147.153 90.6231 146.995 91.0114 146.678C91.3996 146.356 91.6884 145.925 91.8778 145.385C92.072 144.845 92.169 144.244 92.169 143.581C92.169 142.913 92.072 142.31 91.8778 141.77C91.6884 141.225 91.3996 140.792 91.0114 140.47C90.6231 140.148 90.1402 139.987 89.5625 139.987C88.9706 139.987 88.4782 140.148 88.0852 140.47C87.697 140.792 87.4058 141.225 87.2116 141.77C87.0223 142.31 86.9276 142.913 86.9276 143.581C86.9276 144.244 87.0223 144.845 87.2116 145.385C87.4058 145.925 87.697 146.356 88.0852 146.678C88.4782 146.995 88.9706 147.153 89.5625 147.153ZM103.911 144.412V138.091H106.482V149H103.989V147.061H103.875C103.629 147.672 103.224 148.171 102.661 148.56C102.102 148.948 101.413 149.142 100.594 149.142C99.8791 149.142 99.247 148.983 98.6978 148.666C98.1533 148.344 97.7272 147.878 97.4194 147.267C97.1116 146.652 96.9577 145.908 96.9577 145.037V138.091H99.5288V144.639C99.5288 145.33 99.7182 145.88 100.097 146.287C100.476 146.694 100.973 146.898 101.588 146.898C101.967 146.898 102.334 146.805 102.689 146.621C103.044 146.436 103.336 146.161 103.563 145.797C103.795 145.428 103.911 144.966 103.911 144.412ZM109.126 149V138.091H111.619V139.909H111.732C111.931 139.279 112.272 138.794 112.755 138.453C113.243 138.107 113.799 137.935 114.424 137.935C114.566 137.935 114.725 137.942 114.9 137.956C115.08 137.965 115.229 137.982 115.347 138.006V140.371C115.238 140.333 115.066 140.3 114.829 140.271C114.597 140.238 114.372 140.222 114.154 140.222C113.685 140.222 113.264 140.323 112.89 140.527C112.521 140.726 112.229 141.003 112.016 141.358C111.803 141.713 111.697 142.123 111.697 142.587V149H109.126ZM127.549 144.114H129.935L131.349 145.946L132.357 147.139L134.779 150.25H132.222L130.575 148.162L129.871 147.168L127.549 144.114ZM135.127 141.727C135.127 143.295 134.834 144.637 134.246 145.754C133.664 146.867 132.869 147.719 131.86 148.311C130.856 148.903 129.718 149.199 128.444 149.199C127.17 149.199 126.029 148.903 125.021 148.311C124.017 147.714 123.221 146.86 122.634 145.747C122.052 144.63 121.761 143.29 121.761 141.727C121.761 140.16 122.052 138.82 122.634 137.707C123.221 136.59 124.017 135.735 125.021 135.143C126.029 134.552 127.17 134.256 128.444 134.256C129.718 134.256 130.856 134.552 131.86 135.143C132.869 135.735 133.664 136.59 134.246 137.707C134.834 138.82 135.127 140.16 135.127 141.727ZM132.478 141.727C132.478 140.624 132.305 139.694 131.96 138.936C131.619 138.174 131.145 137.598 130.539 137.21C129.933 136.817 129.235 136.621 128.444 136.621C127.653 136.621 126.955 136.817 126.349 137.21C125.743 137.598 125.267 138.174 124.921 138.936C124.58 139.694 124.41 140.624 124.41 141.727C124.41 142.83 124.58 143.763 124.921 144.526C125.267 145.283 125.743 145.858 126.349 146.251C126.955 146.64 127.653 146.834 128.444 146.834C129.235 146.834 129.933 146.64 130.539 146.251C131.145 145.858 131.619 145.283 131.96 144.526C132.305 143.763 132.478 142.83 132.478 141.727ZM137.638 149V134.455H143.092C144.21 134.455 145.147 134.649 145.905 135.037C146.667 135.425 147.242 135.97 147.631 136.67C148.024 137.366 148.22 138.179 148.22 139.107C148.22 140.039 148.021 140.849 147.624 141.536C147.231 142.217 146.651 142.745 145.884 143.119C145.116 143.489 144.174 143.673 143.057 143.673H139.172V141.486H142.702C143.355 141.486 143.89 141.396 144.307 141.216C144.723 141.031 145.031 140.764 145.23 140.413C145.434 140.058 145.536 139.623 145.536 139.107C145.536 138.59 145.434 138.15 145.23 137.786C145.027 137.416 144.716 137.137 144.3 136.947C143.883 136.753 143.346 136.656 142.688 136.656H140.273V149H137.638ZM145.152 142.409L148.753 149H145.812L142.276 142.409H145.152ZM168.057 139.362H165.401C165.325 138.927 165.185 138.541 164.982 138.205C164.778 137.864 164.525 137.575 164.222 137.338C163.919 137.101 163.573 136.924 163.185 136.805C162.801 136.682 162.387 136.621 161.942 136.621C161.151 136.621 160.45 136.82 159.839 137.217C159.229 137.61 158.75 138.188 158.405 138.95C158.059 139.708 157.886 140.634 157.886 141.727C157.886 142.84 158.059 143.777 158.405 144.54C158.755 145.297 159.233 145.87 159.839 146.259C160.45 146.642 161.149 146.834 161.935 146.834C162.37 146.834 162.777 146.777 163.156 146.663C163.54 146.545 163.883 146.372 164.186 146.145C164.494 145.918 164.752 145.638 164.96 145.307C165.173 144.975 165.32 144.597 165.401 144.17L168.057 144.185C167.957 144.876 167.742 145.525 167.411 146.131C167.084 146.737 166.655 147.272 166.125 147.736C165.595 148.195 164.974 148.555 164.264 148.815C163.554 149.071 162.766 149.199 161.899 149.199C160.621 149.199 159.48 148.903 158.476 148.311C157.472 147.719 156.681 146.865 156.104 145.747C155.526 144.63 155.237 143.29 155.237 141.727C155.237 140.16 155.528 138.82 156.111 137.707C156.693 136.59 157.486 135.735 158.49 135.143C159.494 134.552 160.63 134.256 161.899 134.256C162.709 134.256 163.462 134.369 164.158 134.597C164.854 134.824 165.474 135.158 166.018 135.598C166.563 136.034 167.01 136.569 167.361 137.203C167.716 137.833 167.948 138.553 168.057 139.362ZM175.115 149.213C174.049 149.213 173.126 148.979 172.345 148.51C171.564 148.041 170.958 147.385 170.527 146.543C170.1 145.7 169.887 144.715 169.887 143.588C169.887 142.461 170.1 141.474 170.527 140.626C170.958 139.779 171.564 139.121 172.345 138.652C173.126 138.183 174.049 137.949 175.115 137.949C176.18 137.949 177.103 138.183 177.885 138.652C178.666 139.121 179.27 139.779 179.696 140.626C180.127 141.474 180.342 142.461 180.342 143.588C180.342 144.715 180.127 145.7 179.696 146.543C179.27 147.385 178.666 148.041 177.885 148.51C177.103 148.979 176.18 149.213 175.115 149.213ZM175.129 147.153C175.707 147.153 176.19 146.995 176.578 146.678C176.966 146.356 177.255 145.925 177.444 145.385C177.638 144.845 177.735 144.244 177.735 143.581C177.735 142.913 177.638 142.31 177.444 141.77C177.255 141.225 176.966 140.792 176.578 140.47C176.19 140.148 175.707 139.987 175.129 139.987C174.537 139.987 174.045 140.148 173.652 140.47C173.263 140.792 172.972 141.225 172.778 141.77C172.589 142.31 172.494 142.913 172.494 143.581C172.494 144.244 172.589 144.845 172.778 145.385C172.972 145.925 173.263 146.356 173.652 146.678C174.045 146.995 174.537 147.153 175.129 147.153ZM186.572 149.192C185.715 149.192 184.948 148.972 184.271 148.531C183.594 148.091 183.059 147.452 182.666 146.614C182.273 145.776 182.077 144.758 182.077 143.56C182.077 142.348 182.276 141.325 182.673 140.491C183.076 139.653 183.618 139.021 184.3 138.595C184.982 138.164 185.741 137.949 186.58 137.949C187.219 137.949 187.744 138.058 188.156 138.276C188.568 138.489 188.895 138.747 189.136 139.05C189.378 139.348 189.565 139.63 189.697 139.895H189.804V134.455H192.382V149H189.854V147.281H189.697C189.565 147.546 189.373 147.828 189.122 148.126C188.871 148.42 188.54 148.671 188.128 148.879C187.716 149.088 187.197 149.192 186.572 149.192ZM187.29 147.082C187.834 147.082 188.298 146.936 188.682 146.642C189.065 146.344 189.357 145.929 189.555 145.399C189.754 144.869 189.854 144.251 189.854 143.545C189.854 142.84 189.754 142.227 189.555 141.706C189.361 141.185 189.072 140.78 188.689 140.491C188.31 140.203 187.844 140.058 187.29 140.058C186.717 140.058 186.239 140.207 185.855 140.506C185.472 140.804 185.183 141.216 184.989 141.741C184.795 142.267 184.697 142.868 184.697 143.545C184.697 144.227 184.795 144.836 184.989 145.371C185.188 145.901 185.479 146.32 185.862 146.628C186.25 146.931 186.726 147.082 187.29 147.082ZM199.951 149.213C198.858 149.213 197.913 148.986 197.118 148.531C196.327 148.072 195.718 147.423 195.292 146.585C194.866 145.742 194.653 144.75 194.653 143.609C194.653 142.487 194.866 141.502 195.292 140.655C195.723 139.803 196.324 139.14 197.096 138.666C197.868 138.188 198.775 137.949 199.816 137.949C200.489 137.949 201.123 138.058 201.72 138.276C202.321 138.489 202.851 138.82 203.311 139.27C203.775 139.72 204.139 140.293 204.404 140.989C204.67 141.68 204.802 142.504 204.802 143.46V144.249H195.86V142.516H202.338C202.333 142.023 202.226 141.585 202.018 141.202C201.81 140.813 201.519 140.508 201.145 140.286C200.775 140.063 200.344 139.952 199.852 139.952C199.326 139.952 198.865 140.08 198.467 140.335C198.069 140.586 197.759 140.918 197.537 141.33C197.319 141.737 197.208 142.184 197.203 142.672V144.185C197.203 144.819 197.319 145.364 197.551 145.818C197.783 146.268 198.107 146.614 198.524 146.855C198.94 147.092 199.428 147.21 199.987 147.21C200.361 147.21 200.699 147.158 201.002 147.054C201.306 146.945 201.568 146.786 201.791 146.578C202.013 146.37 202.181 146.112 202.295 145.804L204.696 146.074C204.544 146.708 204.255 147.262 203.829 147.736C203.408 148.205 202.868 148.569 202.21 148.83C201.552 149.085 200.799 149.213 199.951 149.213ZM215.077 149.22C214.386 149.22 213.763 149.097 213.21 148.851C212.66 148.6 212.225 148.231 211.903 147.743C211.585 147.255 211.427 146.654 211.427 145.939C211.427 145.323 211.54 144.814 211.768 144.412C211.995 144.009 212.305 143.688 212.698 143.446C213.091 143.205 213.534 143.022 214.026 142.899C214.523 142.771 215.037 142.679 215.567 142.622C216.207 142.556 216.725 142.497 217.123 142.445C217.521 142.388 217.809 142.303 217.989 142.189C218.174 142.071 218.266 141.888 218.266 141.642V141.599C218.266 141.064 218.108 140.65 217.79 140.357C217.473 140.063 217.016 139.916 216.42 139.916C215.79 139.916 215.29 140.054 214.921 140.328C214.557 140.603 214.31 140.927 214.183 141.301L211.782 140.96C211.971 140.297 212.284 139.743 212.719 139.298C213.155 138.848 213.688 138.512 214.317 138.29C214.947 138.062 215.643 137.949 216.406 137.949C216.931 137.949 217.454 138.01 217.975 138.134C218.496 138.257 218.972 138.46 219.403 138.744C219.834 139.024 220.179 139.405 220.44 139.888C220.705 140.371 220.837 140.974 220.837 141.699V149H218.366V147.501H218.281C218.124 147.804 217.904 148.089 217.62 148.354C217.341 148.614 216.988 148.825 216.562 148.986C216.14 149.142 215.646 149.22 215.077 149.22ZM215.745 147.331C216.261 147.331 216.709 147.229 217.087 147.026C217.466 146.817 217.757 146.543 217.961 146.202C218.169 145.861 218.273 145.489 218.273 145.087V143.801C218.193 143.867 218.056 143.929 217.862 143.986C217.672 144.043 217.459 144.092 217.222 144.135C216.986 144.178 216.751 144.215 216.519 144.249C216.287 144.282 216.086 144.31 215.915 144.334C215.532 144.386 215.189 144.471 214.886 144.589C214.583 144.708 214.344 144.874 214.168 145.087C213.993 145.295 213.906 145.565 213.906 145.896C213.906 146.37 214.078 146.727 214.424 146.969C214.77 147.21 215.21 147.331 215.745 147.331ZM228.87 138.091V140.08H222.599V138.091H228.87ZM224.147 135.477H226.718V145.719C226.718 146.064 226.77 146.33 226.874 146.514C226.983 146.694 227.125 146.817 227.3 146.884C227.476 146.95 227.67 146.983 227.883 146.983C228.044 146.983 228.191 146.971 228.323 146.947C228.46 146.924 228.565 146.902 228.636 146.884L229.069 148.893C228.932 148.941 228.735 148.993 228.479 149.05C228.228 149.107 227.921 149.14 227.556 149.149C226.912 149.168 226.332 149.071 225.816 148.858C225.3 148.64 224.89 148.304 224.587 147.849C224.289 147.395 224.142 146.827 224.147 146.145V135.477ZM241.429 138.091V140.08H235.157V138.091H241.429ZM236.706 135.477H239.277V145.719C239.277 146.064 239.329 146.33 239.433 146.514C239.542 146.694 239.684 146.817 239.859 146.884C240.034 146.95 240.228 146.983 240.441 146.983C240.602 146.983 240.749 146.971 240.882 146.947C241.019 146.924 241.123 146.902 241.194 146.884L241.627 148.893C241.49 148.941 241.294 148.993 241.038 149.05C240.787 149.107 240.479 149.14 240.115 149.149C239.471 149.168 238.891 149.071 238.375 148.858C237.859 148.64 237.449 148.304 237.146 147.849C236.848 147.395 236.701 146.827 236.706 146.145V135.477ZM246.384 142.608V149H243.813V134.455H246.327V139.945H246.455C246.711 139.329 247.106 138.844 247.641 138.489C248.181 138.129 248.868 137.949 249.701 137.949C250.459 137.949 251.119 138.107 251.683 138.425C252.246 138.742 252.682 139.206 252.989 139.817C253.302 140.428 253.458 141.173 253.458 142.054V149H250.887V142.452C250.887 141.718 250.698 141.147 250.319 140.74C249.945 140.328 249.419 140.122 248.742 140.122C248.288 140.122 247.88 140.222 247.521 140.42C247.165 140.615 246.886 140.896 246.683 141.266C246.484 141.635 246.384 142.082 246.384 142.608ZM260.908 149.213C259.815 149.213 258.87 148.986 258.075 148.531C257.284 148.072 256.675 147.423 256.249 146.585C255.823 145.742 255.61 144.75 255.61 143.609C255.61 142.487 255.823 141.502 256.249 140.655C256.68 139.803 257.281 139.14 258.053 138.666C258.825 138.188 259.732 137.949 260.773 137.949C261.446 137.949 262.08 138.058 262.677 138.276C263.278 138.489 263.808 138.82 264.268 139.27C264.732 139.72 265.096 140.293 265.362 140.989C265.627 141.68 265.759 142.504 265.759 143.46V144.249H256.817V142.516H263.295C263.29 142.023 263.183 141.585 262.975 141.202C262.767 140.813 262.476 140.508 262.102 140.286C261.732 140.063 261.301 139.952 260.809 139.952C260.283 139.952 259.822 140.08 259.424 140.335C259.026 140.586 258.716 140.918 258.494 141.33C258.276 141.737 258.165 142.184 258.16 142.672V144.185C258.16 144.819 258.276 145.364 258.508 145.818C258.74 146.268 259.064 146.614 259.481 146.855C259.897 147.092 260.385 147.21 260.944 147.21C261.318 147.21 261.656 147.158 261.96 147.054C262.263 146.945 262.525 146.786 262.748 146.578C262.97 146.37 263.138 146.112 263.252 145.804L265.653 146.074C265.501 146.708 265.212 147.262 264.786 147.736C264.365 148.205 263.825 148.569 263.167 148.83C262.509 149.085 261.756 149.213 260.908 149.213ZM72.6733 177.213C71.5843 177.213 70.6491 176.974 69.8679 176.496C69.0914 176.018 68.4924 175.357 68.071 174.514C67.6544 173.667 67.446 172.691 67.446 171.588C67.446 170.48 67.6591 169.502 68.0852 168.655C68.5114 167.803 69.1127 167.14 69.8892 166.666C70.6705 166.188 71.5938 165.949 72.6591 165.949C73.5445 165.949 74.3281 166.112 75.0099 166.439C75.6965 166.761 76.2434 167.218 76.6506 167.81C77.0578 168.397 77.2898 169.083 77.3466 169.869H74.8892C74.7898 169.344 74.553 168.906 74.179 168.555C73.8097 168.2 73.3149 168.023 72.6946 168.023C72.169 168.023 71.7074 168.165 71.3097 168.449C70.9119 168.728 70.6018 169.131 70.3793 169.656C70.1615 170.182 70.0526 170.812 70.0526 171.545C70.0526 172.289 70.1615 172.928 70.3793 173.463C70.5971 173.993 70.9025 174.403 71.2955 174.692C71.6932 174.976 72.1596 175.118 72.6946 175.118C73.0734 175.118 73.4119 175.047 73.7102 174.905C74.0133 174.758 74.2666 174.547 74.4702 174.273C74.6738 173.998 74.8134 173.664 74.8892 173.271H77.3466C77.285 174.043 77.0578 174.727 76.6648 175.324C76.2718 175.916 75.7367 176.38 75.0597 176.716C74.3826 177.047 73.5871 177.213 72.6733 177.213ZM82.5969 177.22C81.9057 177.22 81.283 177.097 80.729 176.851C80.1798 176.6 79.7442 176.231 79.4222 175.743C79.105 175.255 78.9464 174.654 78.9464 173.939C78.9464 173.323 79.06 172.814 79.2873 172.412C79.5146 172.009 79.8247 171.688 80.2177 171.446C80.6107 171.205 81.0534 171.022 81.5458 170.899C82.043 170.771 82.5567 170.679 83.087 170.622C83.7262 170.556 84.2447 170.497 84.6424 170.445C85.0401 170.388 85.329 170.303 85.5089 170.189C85.6935 170.071 85.7859 169.888 85.7859 169.642V169.599C85.7859 169.064 85.6272 168.65 85.31 168.357C84.9928 168.063 84.5359 167.916 83.9393 167.916C83.3095 167.916 82.81 168.054 82.4407 168.328C82.0761 168.603 81.8299 168.927 81.7021 169.301L79.3015 168.96C79.4909 168.297 79.8034 167.743 80.239 167.298C80.6746 166.848 81.2073 166.512 81.837 166.29C82.4667 166.062 83.1628 165.949 83.9251 165.949C84.4506 165.949 84.9738 166.01 85.4947 166.134C86.0155 166.257 86.4914 166.46 86.9222 166.744C87.3531 167.024 87.6987 167.405 87.9592 167.888C88.2243 168.371 88.3569 168.974 88.3569 169.699V177H85.8853V175.501H85.8001C85.6438 175.804 85.4237 176.089 85.1396 176.354C84.8602 176.614 84.5075 176.825 84.0813 176.986C83.6599 177.142 83.1651 177.22 82.5969 177.22ZM83.2646 175.331C83.7807 175.331 84.2281 175.229 84.6069 175.026C84.9857 174.817 85.2769 174.543 85.4805 174.202C85.6888 173.861 85.793 173.489 85.793 173.087V171.801C85.7125 171.867 85.5752 171.929 85.381 171.986C85.1916 172.043 84.9786 172.092 84.7418 172.135C84.5051 172.178 84.2707 172.215 84.0387 172.249C83.8067 172.282 83.6055 172.31 83.435 172.334C83.0515 172.386 82.7082 172.471 82.4052 172.589C82.1022 172.708 81.863 172.874 81.6879 173.087C81.5127 173.295 81.4251 173.565 81.4251 173.896C81.4251 174.37 81.5979 174.727 81.9435 174.969C82.2892 175.21 82.7295 175.331 83.2646 175.331ZM90.9421 177V166.091H93.3995V167.945H93.5273C93.7546 167.32 94.131 166.832 94.6566 166.482C95.1822 166.126 95.8095 165.949 96.5387 165.949C97.2773 165.949 97.9 166.129 98.4066 166.489C98.918 166.844 99.2778 167.329 99.4862 167.945H99.5998C99.8413 167.339 100.248 166.856 100.821 166.496C101.399 166.131 102.083 165.949 102.874 165.949C103.878 165.949 104.697 166.266 105.331 166.901C105.966 167.535 106.283 168.461 106.283 169.678V177H103.705V170.075C103.705 169.398 103.525 168.903 103.165 168.591C102.805 168.274 102.365 168.115 101.844 168.115C101.224 168.115 100.739 168.309 100.388 168.697C100.042 169.081 99.8697 169.58 99.8697 170.196V177H97.3484V169.969C97.3484 169.405 97.1779 168.955 96.837 168.619C96.5008 168.283 96.0605 168.115 95.516 168.115C95.1467 168.115 94.8105 168.21 94.5075 168.399C94.2044 168.584 93.9629 168.847 93.783 169.188C93.6031 169.524 93.5131 169.917 93.5131 170.366V177H90.9421ZM113.721 177.213C112.627 177.213 111.683 176.986 110.887 176.531C110.096 176.072 109.488 175.423 109.062 174.585C108.636 173.742 108.423 172.75 108.423 171.609C108.423 170.487 108.636 169.502 109.062 168.655C109.493 167.803 110.094 167.14 110.866 166.666C111.638 166.188 112.544 165.949 113.586 165.949C114.258 165.949 114.893 166.058 115.489 166.276C116.091 166.489 116.621 166.82 117.08 167.27C117.544 167.72 117.909 168.293 118.174 168.989C118.439 169.68 118.572 170.504 118.572 171.46V172.249H109.63V170.516H116.107C116.103 170.023 115.996 169.585 115.788 169.202C115.579 168.813 115.288 168.508 114.914 168.286C114.545 168.063 114.114 167.952 113.621 167.952C113.096 167.952 112.634 168.08 112.237 168.335C111.839 168.586 111.529 168.918 111.306 169.33C111.088 169.737 110.977 170.184 110.972 170.672V172.185C110.972 172.819 111.088 173.364 111.32 173.818C111.552 174.268 111.877 174.614 112.293 174.855C112.71 175.092 113.198 175.21 113.756 175.21C114.13 175.21 114.469 175.158 114.772 175.054C115.075 174.945 115.338 174.786 115.56 174.578C115.783 174.37 115.951 174.112 116.065 173.804L118.465 174.074C118.314 174.708 118.025 175.262 117.599 175.736C117.177 176.205 116.638 176.569 115.979 176.83C115.321 177.085 114.568 177.213 113.721 177.213ZM120.747 177V166.091H123.24V167.909H123.353C123.552 167.279 123.893 166.794 124.376 166.453C124.864 166.107 125.42 165.935 126.045 165.935C126.187 165.935 126.346 165.942 126.521 165.956C126.701 165.965 126.85 165.982 126.968 166.006V168.371C126.859 168.333 126.687 168.3 126.45 168.271C126.218 168.238 125.993 168.222 125.775 168.222C125.306 168.222 124.885 168.323 124.511 168.527C124.142 168.726 123.85 169.003 123.637 169.358C123.424 169.713 123.318 170.123 123.318 170.587V177H120.747ZM131.62 177.22C130.929 177.22 130.306 177.097 129.752 176.851C129.203 176.6 128.768 176.231 128.446 175.743C128.128 175.255 127.97 174.654 127.97 173.939C127.97 173.323 128.083 172.814 128.311 172.412C128.538 172.009 128.848 171.688 129.241 171.446C129.634 171.205 130.077 171.022 130.569 170.899C131.066 170.771 131.58 170.679 132.11 170.622C132.75 170.556 133.268 170.497 133.666 170.445C134.064 170.388 134.352 170.303 134.532 170.189C134.717 170.071 134.809 169.888 134.809 169.642V169.599C134.809 169.064 134.651 168.65 134.333 168.357C134.016 168.063 133.559 167.916 132.963 167.916C132.333 167.916 131.833 168.054 131.464 168.328C131.1 168.603 130.853 168.927 130.725 169.301L128.325 168.96C128.514 168.297 128.827 167.743 129.262 167.298C129.698 166.848 130.231 166.512 130.86 166.29C131.49 166.062 132.186 165.949 132.949 165.949C133.474 165.949 133.997 166.01 134.518 166.134C135.039 166.257 135.515 166.46 135.946 166.744C136.377 167.024 136.722 167.405 136.983 167.888C137.248 168.371 137.38 168.974 137.38 169.699V177H134.909V175.501H134.824C134.667 175.804 134.447 176.089 134.163 176.354C133.884 176.614 133.531 176.825 133.105 176.986C132.683 177.142 132.189 177.22 131.62 177.22ZM132.288 175.331C132.804 175.331 133.252 175.229 133.63 175.026C134.009 174.817 134.3 174.543 134.504 174.202C134.712 173.861 134.816 173.489 134.816 173.087V171.801C134.736 171.867 134.599 171.929 134.404 171.986C134.215 172.043 134.002 172.092 133.765 172.135C133.529 172.178 133.294 172.215 133.062 172.249C132.83 172.282 132.629 172.31 132.458 172.334C132.075 172.386 131.732 172.471 131.429 172.589C131.126 172.708 130.886 172.874 130.711 173.087C130.536 173.295 130.449 173.565 130.449 173.896C130.449 174.37 130.621 174.727 130.967 174.969C131.313 175.21 131.753 175.331 132.288 175.331ZM150.374 166.091V168.08H144.103V166.091H150.374ZM145.651 163.477H148.222V173.719C148.222 174.064 148.274 174.33 148.378 174.514C148.487 174.694 148.629 174.817 148.804 174.884C148.98 174.95 149.174 174.983 149.387 174.983C149.548 174.983 149.694 174.971 149.827 174.947C149.964 174.924 150.069 174.902 150.14 174.884L150.573 176.893C150.435 176.941 150.239 176.993 149.983 177.05C149.732 177.107 149.425 177.14 149.06 177.149C148.416 177.168 147.836 177.071 147.32 176.858C146.804 176.64 146.394 176.304 146.091 175.849C145.793 175.395 145.646 174.827 145.651 174.145V163.477ZM157.165 177.213C156.1 177.213 155.177 176.979 154.396 176.51C153.614 176.041 153.008 175.385 152.577 174.543C152.151 173.7 151.938 172.715 151.938 171.588C151.938 170.461 152.151 169.474 152.577 168.626C153.008 167.779 153.614 167.121 154.396 166.652C155.177 166.183 156.1 165.949 157.165 165.949C158.231 165.949 159.154 166.183 159.935 166.652C160.717 167.121 161.32 167.779 161.746 168.626C162.177 169.474 162.393 170.461 162.393 171.588C162.393 172.715 162.177 173.7 161.746 174.543C161.32 175.385 160.717 176.041 159.935 176.51C159.154 176.979 158.231 177.213 157.165 177.213ZM157.18 175.153C157.757 175.153 158.24 174.995 158.629 174.678C159.017 174.356 159.306 173.925 159.495 173.385C159.689 172.845 159.786 172.244 159.786 171.581C159.786 170.913 159.689 170.31 159.495 169.77C159.306 169.225 159.017 168.792 158.629 168.47C158.24 168.148 157.757 167.987 157.18 167.987C156.588 167.987 156.095 168.148 155.702 168.47C155.314 168.792 155.023 169.225 154.829 169.77C154.639 170.31 154.545 170.913 154.545 171.581C154.545 172.244 154.639 172.845 154.829 173.385C155.023 173.925 155.314 174.356 155.702 174.678C156.095 174.995 156.588 175.153 157.18 175.153ZM178.158 168.974L175.814 169.23C175.748 168.993 175.632 168.771 175.466 168.562C175.305 168.354 175.087 168.186 174.813 168.058C174.538 167.93 174.202 167.866 173.804 167.866C173.269 167.866 172.819 167.982 172.455 168.214C172.095 168.446 171.917 168.747 171.922 169.116C171.917 169.434 172.033 169.692 172.27 169.891C172.512 170.089 172.909 170.253 173.463 170.381L175.324 170.778C176.356 171.001 177.123 171.354 177.625 171.837C178.132 172.32 178.388 172.952 178.392 173.733C178.388 174.42 178.186 175.026 177.789 175.551C177.396 176.072 176.849 176.479 176.148 176.773C175.447 177.066 174.642 177.213 173.733 177.213C172.398 177.213 171.323 176.934 170.509 176.375C169.694 175.812 169.209 175.028 169.053 174.024L171.56 173.783C171.674 174.275 171.915 174.647 172.284 174.898C172.654 175.149 173.134 175.274 173.726 175.274C174.337 175.274 174.827 175.149 175.196 174.898C175.57 174.647 175.757 174.337 175.757 173.967C175.757 173.655 175.637 173.397 175.395 173.193C175.158 172.99 174.789 172.833 174.287 172.724L172.426 172.334C171.38 172.116 170.606 171.749 170.104 171.233C169.602 170.712 169.354 170.054 169.358 169.259C169.354 168.586 169.536 168.004 169.905 167.511C170.279 167.014 170.798 166.631 171.461 166.361C172.128 166.086 172.898 165.949 173.769 165.949C175.047 165.949 176.053 166.221 176.787 166.766C177.526 167.31 177.983 168.046 178.158 168.974ZM185.271 177.213C184.182 177.213 183.247 176.974 182.466 176.496C181.689 176.018 181.09 175.357 180.669 174.514C180.252 173.667 180.044 172.691 180.044 171.588C180.044 170.48 180.257 169.502 180.683 168.655C181.109 167.803 181.71 167.14 182.487 166.666C183.268 166.188 184.191 165.949 185.257 165.949C186.142 165.949 186.926 166.112 187.608 166.439C188.294 166.761 188.841 167.218 189.248 167.81C189.655 168.397 189.887 169.083 189.944 169.869H187.487C187.387 169.344 187.151 168.906 186.777 168.555C186.407 168.2 185.913 168.023 185.292 168.023C184.767 168.023 184.305 168.165 183.907 168.449C183.51 168.728 183.199 169.131 182.977 169.656C182.759 170.182 182.65 170.812 182.65 171.545C182.65 172.289 182.759 172.928 182.977 173.463C183.195 173.993 183.5 174.403 183.893 174.692C184.291 174.976 184.757 175.118 185.292 175.118C185.671 175.118 186.01 175.047 186.308 174.905C186.611 174.758 186.864 174.547 187.068 174.273C187.271 173.998 187.411 173.664 187.487 173.271H189.944C189.883 174.043 189.655 174.727 189.262 175.324C188.869 175.916 188.334 176.38 187.657 176.716C186.98 177.047 186.185 177.213 185.271 177.213ZM195.195 177.22C194.503 177.22 193.881 177.097 193.327 176.851C192.777 176.6 192.342 176.231 192.02 175.743C191.703 175.255 191.544 174.654 191.544 173.939C191.544 173.323 191.658 172.814 191.885 172.412C192.112 172.009 192.422 171.688 192.815 171.446C193.208 171.205 193.651 171.022 194.143 170.899C194.641 170.771 195.154 170.679 195.685 170.622C196.324 170.556 196.842 170.497 197.24 170.445C197.638 170.388 197.927 170.303 198.107 170.189C198.291 170.071 198.384 169.888 198.384 169.642V169.599C198.384 169.064 198.225 168.65 197.908 168.357C197.59 168.063 197.134 167.916 196.537 167.916C195.907 167.916 195.408 168.054 195.038 168.328C194.674 168.603 194.428 168.927 194.3 169.301L191.899 168.96C192.089 168.297 192.401 167.743 192.837 167.298C193.272 166.848 193.805 166.512 194.435 166.29C195.064 166.062 195.76 165.949 196.523 165.949C197.048 165.949 197.571 166.01 198.092 166.134C198.613 166.257 199.089 166.46 199.52 166.744C199.951 167.024 200.296 167.405 200.557 167.888C200.822 168.371 200.955 168.974 200.955 169.699V177H198.483V175.501H198.398C198.241 175.804 198.021 176.089 197.737 176.354C197.458 176.614 197.105 176.825 196.679 176.986C196.258 177.142 195.763 177.22 195.195 177.22ZM195.862 175.331C196.378 175.331 196.826 175.229 197.205 175.026C197.583 174.817 197.875 174.543 198.078 174.202C198.286 173.861 198.391 173.489 198.391 173.087V171.801C198.31 171.867 198.173 171.929 197.979 171.986C197.789 172.043 197.576 172.092 197.339 172.135C197.103 172.178 196.868 172.215 196.636 172.249C196.404 172.282 196.203 172.31 196.033 172.334C195.649 172.386 195.306 172.471 195.003 172.589C194.7 172.708 194.461 172.874 194.286 173.087C194.11 173.295 194.023 173.565 194.023 173.896C194.023 174.37 194.196 174.727 194.541 174.969C194.887 175.21 195.327 175.331 195.862 175.331ZM206.111 170.608V177H203.54V166.091H205.997V167.945H206.125C206.376 167.334 206.776 166.848 207.325 166.489C207.879 166.129 208.563 165.949 209.378 165.949C210.131 165.949 210.786 166.11 211.345 166.432C211.909 166.754 212.344 167.22 212.652 167.831C212.964 168.442 213.118 169.183 213.114 170.054V177H210.543V170.452C210.543 169.723 210.353 169.152 209.974 168.74C209.6 168.328 209.082 168.122 208.419 168.122C207.969 168.122 207.569 168.222 207.219 168.42C206.873 168.615 206.601 168.896 206.402 169.266C206.208 169.635 206.111 170.082 206.111 170.608Z" fill="#021F2C"/>
</svg>
