<svg width="40" height="40" viewBox="0 0 40 40" fill="none" xmlns="http://www.w3.org/2000/svg">
<path d="M21.0001 6.66666C21.0001 6.11437 20.5524 5.66666 20.0001 5.66666C19.4478 5.66666 19.0001 6.11437 19.0001 6.66666H21.0001ZM19.0001 8.33332C19.0001 8.88561 19.4478 9.33332 20.0001 9.33332C20.5524 9.33332 21.0001 8.88561 21.0001 8.33332H19.0001ZM30.0001 25.6667C29.4478 25.6667 29.0001 26.1144 29.0001 26.6667C29.0001 27.2189 29.4478 27.6667 30.0001 27.6667V25.6667ZM33.3334 27.6667C33.8857 27.6667 34.3334 27.2189 34.3334 26.6667C34.3334 26.1144 33.8857 25.6667 33.3334 25.6667V27.6667ZM20.0001 26.6667V25.6667C19.4478 25.6667 19.0001 26.1144 19.0001 26.6667H20.0001ZM23.3334 27.6667C23.8857 27.6667 24.3334 27.2189 24.3334 26.6667C24.3334 26.1144 23.8857 25.6667 23.3334 25.6667V27.6667ZM19.0001 33.3333C19.0001 33.8856 19.4478 34.3333 20.0001 34.3333C20.5524 34.3333 21.0001 33.8856 21.0001 33.3333H19.0001ZM21.0001 15C21.0001 14.4477 20.5524 14 20.0001 14C19.4478 14 19.0001 14.4477 19.0001 15H21.0001ZM20.0001 20H19.0001C19.0001 20.5523 19.4478 21 20.0001 21V20ZM26.6667 32.3333C26.1145 32.3333 25.6667 32.781 25.6667 33.3333C25.6667 33.8856 26.1145 34.3333 26.6667 34.3333V32.3333ZM33.3334 34.3333C33.8857 34.3333 34.3334 33.8856 34.3334 33.3333C34.3334 32.781 33.8857 32.3333 33.3334 32.3333V34.3333ZM6.66675 19C6.11446 19 5.66675 19.4477 5.66675 20C5.66675 20.5523 6.11446 21 6.66675 21V19ZM13.3334 21C13.8857 21 14.3334 20.5523 14.3334 20C14.3334 19.4477 13.8857 19 13.3334 19V21ZM20.0167 21C20.569 21 21.0167 20.5523 21.0167 20C21.0167 19.4477 20.569 19 20.0167 19V21ZM26.6834 21C27.2357 21 27.6834 20.5523 27.6834 20C27.6834 19.4477 27.2357 19 26.6834 19V21ZM33.3334 19C32.7811 19 32.3334 19.4477 32.3334 20C32.3334 20.5523 32.7811 21 33.3334 21V19ZM33.3501 21C33.9024 21 34.3501 20.5523 34.3501 20C34.3501 19.4477 33.9024 19 33.3501 19V21ZM8.33341 7.66666H11.6667V5.66666H8.33341V7.66666ZM12.3334 8.33332V11.6667H14.3334V8.33332H12.3334ZM11.6667 12.3333H8.33341V14.3333H11.6667V12.3333ZM7.66675 11.6667V8.33332H5.66675V11.6667H7.66675ZM8.33341 12.3333C7.96522 12.3333 7.66675 12.0348 7.66675 11.6667H5.66675C5.66675 13.1394 6.86066 14.3333 8.33341 14.3333V12.3333ZM12.3334 11.6667C12.3334 12.0348 12.0349 12.3333 11.6667 12.3333V14.3333C13.1395 14.3333 14.3334 13.1394 14.3334 11.6667H12.3334ZM11.6667 7.66666C12.0349 7.66666 12.3334 7.96513 12.3334 8.33332H14.3334C14.3334 6.86056 13.1395 5.66666 11.6667 5.66666V7.66666ZM8.33341 5.66666C6.86066 5.66666 5.66675 6.86056 5.66675 8.33332H7.66675C7.66675 7.96513 7.96522 7.66666 8.33341 7.66666V5.66666ZM28.3334 7.66666H31.6667V5.66666H28.3334V7.66666ZM32.3334 8.33332V11.6667H34.3334V8.33332H32.3334ZM31.6667 12.3333H28.3334V14.3333H31.6667V12.3333ZM27.6667 11.6667V8.33332H25.6667V11.6667H27.6667ZM28.3334 12.3333C27.9652 12.3333 27.6667 12.0348 27.6667 11.6667H25.6667C25.6667 13.1394 26.8607 14.3333 28.3334 14.3333V12.3333ZM32.3334 11.6667C32.3334 12.0348 32.0349 12.3333 31.6667 12.3333V14.3333C33.1395 14.3333 34.3334 13.1394 34.3334 11.6667H32.3334ZM31.6667 7.66666C32.0349 7.66666 32.3334 7.96513 32.3334 8.33332H34.3334C34.3334 6.86056 33.1395 5.66666 31.6667 5.66666V7.66666ZM28.3334 5.66666C26.8607 5.66666 25.6667 6.86056 25.6667 8.33332H27.6667C27.6667 7.96513 27.9652 7.66666 28.3334 7.66666V5.66666ZM8.33341 27.6667H11.6667V25.6667H8.33341V27.6667ZM12.3334 28.3333V31.6667H14.3334V28.3333H12.3334ZM11.6667 32.3333H8.33341V34.3333H11.6667V32.3333ZM7.66675 31.6667V28.3333H5.66675V31.6667H7.66675ZM8.33341 32.3333C7.96522 32.3333 7.66675 32.0348 7.66675 31.6667H5.66675C5.66675 33.1394 6.86066 34.3333 8.33341 34.3333V32.3333ZM12.3334 31.6667C12.3334 32.0348 12.0349 32.3333 11.6667 32.3333V34.3333C13.1395 34.3333 14.3334 33.1394 14.3334 31.6667H12.3334ZM11.6667 27.6667C12.0349 27.6667 12.3334 27.9651 12.3334 28.3333H14.3334C14.3334 26.8606 13.1395 25.6667 11.6667 25.6667V27.6667ZM8.33341 25.6667C6.86066 25.6667 5.66675 26.8606 5.66675 28.3333H7.66675C7.66675 27.9651 7.96522 27.6667 8.33341 27.6667V25.6667ZM19.0001 6.66666V8.33332H21.0001V6.66666H19.0001ZM30.0001 27.6667H33.3334V25.6667H30.0001V27.6667ZM20.0001 27.6667H23.3334V25.6667H20.0001V27.6667ZM19.0001 26.6667V33.3333H21.0001V26.6667H19.0001ZM19.0001 15V20H21.0001V15H19.0001ZM26.6667 34.3333H33.3334V32.3333H26.6667V34.3333ZM6.66675 21H13.3334V19H6.66675V21ZM20.0001 21H20.0167V19H20.0001V21ZM33.3334 21H33.3501V19H33.3334V21ZM20.0001 21H26.6834V19H20.0001V21Z" fill="#0F172A"/>
</svg>
