<svg width="25" height="24" viewBox="0 0 25 24" fill="none" xmlns="http://www.w3.org/2000/svg">
<path d="M12.75 2C7.24 2 2.75 6.49 2.75 12C2.75 17.51 7.24 22 12.75 22C18.26 22 22.75 17.51 22.75 12C22.75 6.49 18.26 2 12.75 2ZM17.53 9.7L11.86 15.37C11.72 15.51 11.53 15.59 11.33 15.59C11.13 15.59 10.94 15.51 10.8 15.37L7.97 12.54C7.68 12.25 7.68 11.77 7.97 11.48C8.26 11.19 8.74 11.19 9.03 11.48L11.33 13.78L16.47 8.64C16.76 8.35 17.24 8.35 17.53 8.64C17.82 8.93 17.82 9.4 17.53 9.7Z" fill="#107D35"/>
</svg>
